<svg xmlns="http://www.w3.org/2000/svg" viewBox="0 0 96 96" width="96" height="96">
  <!--
    Apple Mouse (M0100) 3/4 glyph, rev 7 - Skeuomorphic theme. Rounded low
    slab; humped top (peak = shoulder just behind the button, sloping down
    to the head/front and the heel), 30-degree chamfers all around the top,
    rounded corners, button proud at the front. Long axis front-left ->
    back-right so the profile reads. Generated by scratchpad/mouse_gen.py.
  -->
  <defs>
    <linearGradient id="mTop" x1="0.1" y1="0" x2="0.5" y2="1">
      <stop offset="0" stop-color="#EAE5D6"/><stop offset="1" stop-color="#D8D2C1"/>
    </linearGradient>
    <linearGradient id="mFront" x1="0" y1="0" x2="0.1" y2="1">
      <stop offset="0" stop-color="#C9C3B2"/><stop offset="1" stop-color="#B6B0A0"/>
    </linearGradient>
    <linearGradient id="mBtn" x1="0.1" y1="0" x2="0.4" y2="1">
      <stop offset="0" stop-color="#CDC7B6"/><stop offset="1" stop-color="#B2AC9B"/>
    </linearGradient>
  </defs>
  <path d="M 10.41,57.47 L 10.48,57.89 L 10.72,58.29 L 11.13,58.66 L 11.70,58.97 L 12.40,59.24 L 13.23,59.45 L 21.00,61.00 L 28.77,62.55 L 29.70,62.70 L 30.72,62.77 L 31.79,62.78 L 32.89,62.72 L 34.00,62.59 L 35.08,62.40 L 36.11,62.15 L 37.06,61.84 L 37.91,61.49 L 38.65,61.09 L 57.69,49.47 L 58.28,49.05 L 58.72,48.61 L 59.00,48.17 L 59.10,47.73 L 59.10,34.85 L 59.00,35.01 L 58.72,35.16 L 58.28,35.29 L 57.69,35.44 L 38.65,50.52 L 37.91,51.19 L 37.06,51.83 L 36.11,52.40 L 35.08,52.90 L 34.00,53.31 L 32.89,53.63 L 31.79,53.84 L 30.72,53.94 L 29.70,53.93 L 28.77,53.81 L 21.00,52.26 L 13.23,50.71 L 12.40,50.48 L 11.70,50.14 L 11.13,49.71 L 10.72,49.20 L 10.48,48.62 L 10.41,47.97 Z" fill="url(#mFront)" stroke="#8F8A7A" stroke-width="1.6" stroke-linejoin="round"/>
  <path d="M 10.41,54.53 L 10.48,54.95 L 10.72,55.35 L 11.13,55.71 L 11.70,56.03 L 12.40,56.30 L 13.23,56.50 L 21.00,58.06 L 28.77,59.61 L 29.70,59.75 L 30.72,59.83 L 31.79,59.84 L 32.89,59.78 L 34.00,59.65 L 35.08,59.45 L 36.11,59.20 L 37.06,58.89 L 37.91,58.54 L 38.65,58.15 L 57.69,46.52 L 58.28,46.10 L 58.72,45.67 L 59.00,45.23 L 59.10,44.79" fill="none" stroke="#8F8A7A" stroke-width="1.0" opacity="0.55"/>
  <path d="M 10.41,56.64 L 10.48,57.07 L 10.72,57.46 L 11.13,57.83 L 11.70,58.15 L 12.40,58.41 L 13.23,58.62 L 21.00,60.17 L 28.77,61.72 L 29.70,61.87 L 30.72,61.95 L 31.79,61.95 L 32.89,61.89 L 34.00,61.76 L 35.08,61.57 L 36.11,61.32 L 37.06,61.01 L 37.91,60.66 L 38.65,60.27 L 57.69,48.64 L 58.28,48.22 L 58.72,47.79 L 59.00,47.34 L 59.10,46.90" fill="none" stroke="#8F8A7A" stroke-width="0.9" opacity="0.4"/>
  <path d="M 21.00,52.26 L 28.77,53.81 L 29.70,53.93 L 30.72,53.94 L 31.79,53.84 L 32.89,53.63 L 34.00,53.31 L 35.08,52.90 L 36.11,52.40 L 37.06,51.83 L 37.91,51.19 L 38.65,50.52 L 57.69,35.44 L 58.28,35.29 L 58.72,35.16 L 59.00,35.01 L 59.10,34.85 L 59.03,34.67 L 58.79,34.47 L 58.38,34.28 L 57.81,34.08 L 57.11,33.89 L 56.27,33.70 L 40.74,30.60 L 39.81,30.43 L 38.79,30.28 L 37.72,30.15 L 36.61,30.05 L 35.51,29.97 L 34.43,29.92 L 33.40,29.90 L 32.45,29.92 L 31.59,29.96 L 30.86,30.08 L 11.82,45.16 L 11.23,45.86 L 10.79,46.58 L 10.51,47.29 L 10.41,47.97 L 10.48,48.62 L 10.72,49.20 L 11.13,49.71 L 11.70,50.14 L 12.40,50.48 L 13.23,50.71 Z" fill="#C9C3B2"/>
  <path d="M 22.38,49.44 L 30.14,50.99 L 30.77,51.08 L 31.46,51.08 L 32.18,51.01 L 32.93,50.87 L 33.67,50.66 L 34.40,50.38 L 35.10,50.04 L 35.74,49.65 L 36.32,49.23 L 36.81,48.77 L 55.85,33.69 L 56.25,33.58 L 56.55,33.49 L 56.74,33.39 L 56.81,33.28 L 56.76,33.16 L 56.59,33.03 L 56.32,32.89 L 55.94,32.76 L 55.46,32.63 L 54.90,32.51 L 39.37,29.40 L 38.74,29.29 L 38.05,29.19 L 37.32,29.10 L 36.58,29.03 L 35.83,28.98 L 35.10,28.94 L 34.41,28.93 L 33.77,28.94 L 33.19,28.97 L 32.70,29.07 L 13.65,44.14 L 13.25,44.62 L 12.96,45.10 L 12.77,45.58 L 12.70,46.04 L 12.75,46.48 L 12.91,46.87 L 13.19,47.22 L 13.57,47.51 L 14.05,47.74 L 14.61,47.89 Z" fill="url(#mTop)"/>
  <path d="M 21.00,52.26 L 28.77,53.81 L 29.70,53.93 L 30.72,53.94 L 31.79,53.84 L 32.89,53.63 L 34.00,53.31 L 35.08,52.90 L 36.11,52.40 L 37.06,51.83 L 37.91,51.19 L 38.65,50.52 L 57.69,35.44 L 58.28,35.29 L 58.72,35.16 L 59.00,35.01 L 59.10,34.85 L 59.03,34.67 L 58.79,34.47 L 58.38,34.28 L 57.81,34.08 L 57.11,33.89 L 56.27,33.70 L 40.74,30.60 L 39.81,30.43 L 38.79,30.28 L 37.72,30.15 L 36.61,30.05 L 35.51,29.97 L 34.43,29.92 L 33.40,29.90 L 32.45,29.92 L 31.59,29.96 L 30.86,30.08 L 11.82,45.16 L 11.23,45.86 L 10.79,46.58 L 10.51,47.29 L 10.41,47.97 L 10.48,48.62 L 10.72,49.20 L 11.13,49.71 L 11.70,50.14 L 12.40,50.48 L 13.23,50.71 Z" fill="none" stroke="#8F8A7A" stroke-width="1.6" stroke-linejoin="round"/>
  <path d="M 22.38,49.44 L 30.14,50.99 L 30.77,51.08 L 31.46,51.08 L 32.18,51.01 L 32.93,50.87 L 33.67,50.66 L 34.40,50.38 L 35.10,50.04 L 35.74,49.65 L 36.32,49.23 L 36.81,48.77 L 55.85,33.69 L 56.25,33.58 L 56.55,33.49 L 56.74,33.39 L 56.81,33.28 L 56.76,33.16 L 56.59,33.03 L 56.32,32.89 L 55.94,32.76 L 55.46,32.63 L 54.90,32.51 L 39.37,29.40 L 38.74,29.29 L 38.05,29.19 L 37.32,29.10 L 36.58,29.03 L 35.83,28.98 L 35.10,28.94 L 34.41,28.93 L 33.77,28.94 L 33.19,28.97 L 32.70,29.07 L 13.65,44.14 L 13.25,44.62 L 12.96,45.10 L 12.77,45.58 L 12.70,46.04 L 12.75,46.48 L 12.91,46.87 L 13.19,47.22 L 13.57,47.51 L 14.05,47.74 L 14.61,47.89 Z" fill="none" stroke="#B4AE9C" stroke-width="1.0" stroke-linejoin="round" opacity="0.75"/>
  <path d="M 37.50,34.33 L 45.98,36.02 L 46.57,36.09 L 47.22,36.09 L 47.90,36.02 L 48.59,35.90 L 49.27,35.80 L 49.89,35.66 L 50.45,35.48 L 50.92,35.27 L 56.59,33.46 L 56.95,33.39 L 57.18,33.30 L 57.29,33.20 L 57.26,33.09 L 57.09,32.97 L 56.80,32.85 L 56.39,32.73 L 55.88,32.61 L 38.94,29.23 L 38.34,29.12 L 37.69,29.03 L 37.01,28.96 L 36.32,28.91 L 35.65,28.88 L 35.02,28.88 L 34.46,28.90 L 34.00,28.94 L 28.32,30.76 L 27.97,30.99 L 27.73,31.23 L 27.63,31.48 L 27.66,31.71 L 27.82,32.01 L 28.11,32.28 L 28.52,32.49 L 29.03,32.63 Z" fill="#BFB9A8"/>
  <path d="M 37.50,33.68 L 45.98,35.37 L 46.57,35.45 L 47.22,35.45 L 47.90,35.37 L 48.59,35.25 L 49.27,35.15 L 49.89,35.01 L 50.45,34.84 L 50.92,34.63 L 56.59,32.81 L 56.95,32.75 L 57.18,32.66 L 57.29,32.56 L 57.26,32.45 L 57.09,32.33 L 56.80,32.20 L 56.39,32.08 L 55.88,31.97 L 38.94,28.58 L 38.34,28.48 L 37.69,28.39 L 37.01,28.32 L 36.32,28.27 L 35.65,28.24 L 35.02,28.23 L 34.46,28.26 L 34.00,28.30 L 28.32,30.12 L 27.97,30.35 L 27.73,30.59 L 27.63,30.83 L 27.66,31.07 L 27.82,31.36 L 28.11,31.63 L 28.52,31.84 L 29.03,31.99 Z" fill="url(#mBtn)" stroke="#8F8A7A" stroke-width="1.4" stroke-linejoin="round"/>
</svg>
