<svg xmlns="http://www.w3.org/2000/svg" viewBox="0 0 96 96" width="96" height="96">
  <!--
    Apple Mouse (M0100) 3/4 glyph, rev 7 - Skeuomorphic theme. Rounded low
    slab; humped top (peak = shoulder just behind the button, sloping down
    to the head/front and the heel), 30-degree chamfers all around the top,
    rounded corners, button proud at the front. Long axis front-left ->
    back-right so the profile reads. Generated by scratchpad/mouse_gen.py.
  -->
  <defs>
    <linearGradient id="mTop" x1="0.1" y1="0" x2="0.5" y2="1">
      <stop offset="0" stop-color="#EAE5D6"/><stop offset="1" stop-color="#D8D2C1"/>
    </linearGradient>
    <linearGradient id="mFront" x1="0" y1="0" x2="0.1" y2="1">
      <stop offset="0" stop-color="#C9C3B2"/><stop offset="1" stop-color="#B6B0A0"/>
    </linearGradient>
    <linearGradient id="mBtn" x1="0.1" y1="0" x2="0.4" y2="1">
      <stop offset="0" stop-color="#CDC7B6"/><stop offset="1" stop-color="#B2AC9B"/>
    </linearGradient>
  </defs>
  <path d="M 12.61,66.71 L 12.72,67.34 L 13.08,67.94 L 13.70,68.48 L 14.54,68.96 L 15.60,69.36 L 16.85,69.67 L 28.50,72.00 L 40.15,74.33 L 41.55,74.54 L 43.08,74.66 L 44.69,74.67 L 46.34,74.58 L 48.00,74.39 L 49.62,74.10 L 51.16,73.72 L 52.59,73.26 L 53.87,72.73 L 54.97,72.14 L 83.53,54.70 L 84.42,54.07 L 85.08,53.42 L 85.49,52.76 L 85.65,52.10 L 85.65,32.77 L 85.49,33.02 L 85.08,33.25 L 84.42,33.44 L 83.53,33.66 L 54.97,56.27 L 53.87,57.29 L 52.59,58.24 L 51.16,59.10 L 49.62,59.85 L 48.00,60.47 L 46.34,60.94 L 44.69,61.26 L 43.08,61.41 L 41.55,61.40 L 40.15,61.22 L 28.50,58.89 L 16.85,56.56 L 15.60,56.22 L 14.54,55.72 L 13.70,55.07 L 13.08,54.30 L 12.72,53.42 L 12.61,52.46 Z" fill="url(#mFront)" stroke="#8F8A7A" stroke-width="1.6" stroke-linejoin="round"/>
  <path d="M 12.61,62.29 L 12.72,62.93 L 13.08,63.52 L 13.70,64.07 L 14.54,64.54 L 15.60,64.95 L 16.85,65.26 L 28.50,67.58 L 40.15,69.91 L 41.55,70.13 L 43.08,70.24 L 44.69,70.26 L 46.34,70.16 L 48.00,69.97 L 49.62,69.68 L 51.16,69.30 L 52.59,68.84 L 53.87,68.31 L 54.97,67.73 L 83.53,50.28 L 84.42,49.66 L 85.08,49.00 L 85.49,48.34 L 85.65,47.68" fill="none" stroke="#8F8A7A" stroke-width="1.0" opacity="0.55"/>
  <path d="M 12.61,65.46 L 12.72,66.10 L 13.08,66.70 L 13.70,67.24 L 14.54,67.72 L 15.60,68.12 L 16.85,68.43 L 28.50,70.76 L 40.15,73.08 L 41.55,73.30 L 43.08,73.42 L 44.69,73.43 L 46.34,73.34 L 48.00,73.15 L 49.62,72.86 L 51.16,72.48 L 52.59,72.02 L 53.87,71.49 L 54.97,70.90 L 83.53,53.46 L 84.42,52.83 L 85.08,52.18 L 85.49,51.51 L 85.65,50.86" fill="none" stroke="#8F8A7A" stroke-width="0.9" opacity="0.4"/>
  <path d="M 28.50,58.89 L 40.15,61.22 L 41.55,61.40 L 43.08,61.41 L 44.69,61.26 L 46.34,60.94 L 48.00,60.47 L 49.62,59.85 L 51.16,59.10 L 52.59,58.24 L 53.87,57.29 L 54.97,56.27 L 83.53,33.66 L 84.42,33.44 L 85.08,33.25 L 85.49,33.02 L 85.65,32.77 L 85.54,32.50 L 85.18,32.21 L 84.57,31.91 L 83.72,31.62 L 82.66,31.33 L 81.41,31.05 L 58.11,26.40 L 56.71,26.15 L 55.18,25.92 L 53.57,25.73 L 51.92,25.57 L 50.26,25.45 L 48.64,25.38 L 47.10,25.35 L 45.67,25.37 L 44.39,25.44 L 43.29,25.62 L 14.73,48.24 L 13.84,49.29 L 13.18,50.37 L 12.77,51.43 L 12.61,52.46 L 12.72,53.42 L 13.08,54.30 L 13.70,55.07 L 14.54,55.72 L 15.60,56.22 L 16.85,56.56 Z" fill="#C9C3B2"/>
  <path d="M 30.56,54.66 L 42.21,56.99 L 43.16,57.11 L 44.19,57.12 L 45.28,57.02 L 46.39,56.81 L 47.51,56.49 L 48.60,56.07 L 49.65,55.56 L 50.61,54.98 L 51.47,54.34 L 52.22,53.65 L 80.78,31.04 L 81.38,30.87 L 81.83,30.74 L 82.10,30.59 L 82.21,30.42 L 82.14,30.23 L 81.89,30.04 L 81.48,29.84 L 80.91,29.64 L 80.19,29.44 L 79.35,29.26 L 56.05,24.61 L 55.10,24.43 L 54.07,24.28 L 52.99,24.15 L 51.87,24.04 L 50.75,23.96 L 49.66,23.92 L 48.61,23.90 L 47.65,23.91 L 46.79,23.96 L 46.05,24.10 L 17.48,46.72 L 16.88,47.43 L 16.44,48.16 L 16.16,48.87 L 16.05,49.57 L 16.13,50.22 L 16.37,50.81 L 16.78,51.33 L 17.36,51.76 L 18.07,52.10 L 18.91,52.34 Z" fill="url(#mTop)"/>
  <path d="M 28.50,58.89 L 40.15,61.22 L 41.55,61.40 L 43.08,61.41 L 44.69,61.26 L 46.34,60.94 L 48.00,60.47 L 49.62,59.85 L 51.16,59.10 L 52.59,58.24 L 53.87,57.29 L 54.97,56.27 L 83.53,33.66 L 84.42,33.44 L 85.08,33.25 L 85.49,33.02 L 85.65,32.77 L 85.54,32.50 L 85.18,32.21 L 84.57,31.91 L 83.72,31.62 L 82.66,31.33 L 81.41,31.05 L 58.11,26.40 L 56.71,26.15 L 55.18,25.92 L 53.57,25.73 L 51.92,25.57 L 50.26,25.45 L 48.64,25.38 L 47.10,25.35 L 45.67,25.37 L 44.39,25.44 L 43.29,25.62 L 14.73,48.24 L 13.84,49.29 L 13.18,50.37 L 12.77,51.43 L 12.61,52.46 L 12.72,53.42 L 13.08,54.30 L 13.70,55.07 L 14.54,55.72 L 15.60,56.22 L 16.85,56.56 Z" fill="none" stroke="#8F8A7A" stroke-width="1.6" stroke-linejoin="round"/>
  <path d="M 30.56,54.66 L 42.21,56.99 L 43.16,57.11 L 44.19,57.12 L 45.28,57.02 L 46.39,56.81 L 47.51,56.49 L 48.60,56.07 L 49.65,55.56 L 50.61,54.98 L 51.47,54.34 L 52.22,53.65 L 80.78,31.04 L 81.38,30.87 L 81.83,30.74 L 82.10,30.59 L 82.21,30.42 L 82.14,30.23 L 81.89,30.04 L 81.48,29.84 L 80.91,29.64 L 80.19,29.44 L 79.35,29.26 L 56.05,24.61 L 55.10,24.43 L 54.07,24.28 L 52.99,24.15 L 51.87,24.04 L 50.75,23.96 L 49.66,23.92 L 48.61,23.90 L 47.65,23.91 L 46.79,23.96 L 46.05,24.10 L 17.48,46.72 L 16.88,47.43 L 16.44,48.16 L 16.16,48.87 L 16.05,49.57 L 16.13,50.22 L 16.37,50.81 L 16.78,51.33 L 17.36,51.76 L 18.07,52.10 L 18.91,52.34 Z" fill="none" stroke="#B4AE9C" stroke-width="1.0" stroke-linejoin="round" opacity="0.75"/>
  <path d="M 53.26,31.99 L 65.97,34.53 L 66.85,34.64 L 67.83,34.64 L 68.85,34.53 L 69.89,34.34 L 70.90,34.20 L 71.84,33.99 L 72.67,33.72 L 73.38,33.41 L 81.88,30.68 L 82.42,30.58 L 82.77,30.46 L 82.93,30.31 L 82.89,30.14 L 82.64,29.96 L 82.20,29.77 L 81.58,29.59 L 80.82,29.42 L 55.40,24.34 L 54.52,24.18 L 53.54,24.05 L 52.52,23.94 L 51.48,23.86 L 50.47,23.82 L 49.53,23.82 L 48.69,23.85 L 47.99,23.91 L 39.49,26.64 L 38.95,26.98 L 38.60,27.35 L 38.44,27.71 L 38.48,28.07 L 38.73,28.51 L 39.17,28.91 L 39.78,29.23 L 40.55,29.45 Z" fill="#BFB9A8"/>
  <path d="M 53.26,31.02 L 65.97,33.56 L 66.85,33.67 L 67.83,33.67 L 68.85,33.56 L 69.89,33.38 L 70.90,33.23 L 71.84,33.02 L 72.67,32.75 L 73.38,32.44 L 81.88,29.72 L 82.42,29.62 L 82.77,29.49 L 82.93,29.34 L 82.89,29.17 L 82.64,28.99 L 82.20,28.81 L 81.58,28.62 L 80.82,28.45 L 55.40,23.37 L 54.52,23.22 L 53.54,23.08 L 52.52,22.97 L 51.48,22.90 L 50.47,22.86 L 49.53,22.85 L 48.69,22.88 L 47.99,22.95 L 39.49,25.68 L 38.95,26.02 L 38.60,26.38 L 38.44,26.75 L 38.48,27.11 L 38.73,27.54 L 39.17,27.95 L 39.78,28.27 L 40.55,28.48 Z" fill="url(#mBtn)" stroke="#8F8A7A" stroke-width="1.4" stroke-linejoin="round"/>
</svg>
